{"title":"De Nieuwe Wildernis (2013) DVDRip-NLU002","uid":9313010,"size":730196298,"categoryP":"video","categoryS":"movies","magnet":"?xt=urn:btih:bc91eb7c175f3e7f47449a4f3fdc96a12551980b&amp;dn=De+Nieuwe+Wildernis+%282013%29+DVDRip-NLU002&amp;tr=udp%3A%2F%2Ftracker.openbittorrent.com%3A80&amp;tr=udp%3A%2F%2Fopen.demonii.com%3A1337&amp;tr=udp%3A%2F%2Ftracker.coppersurfer.tk%3A6969&amp;tr=udp%3A%2F%2Fexodus.desync.com%3A6969","seeders":0,"leechers":0,"uploader":"NLUPPER002","files":-1,"time":1386429941,"description":"De Nieuwe Wildernis (2013) DVDRip-NLU002\n.\n[IMG]http://imageshack.us/a/img819/8205/vux2.jpg[/IMG]\n.\n6 -  Documentary  -  26 September 2013 (Netherlands) \n. &lt;a href=&quot;\nhttp://www.imdb.com/title/tt2997766/&quot; rel=&quot;nofollow&quot; target=&quot;_NEW&quot;&gt;\nhttp://www.imdb.com/title/tt2997766/&lt;/a&gt;\n. &lt;a href=&quot;\nhttp://www.moviemeter.nl/film/92034&quot; rel=&quot;nofollow&quot; target=&quot;_NEW&quot;&gt;\nhttp://www.moviemeter.nl/film/92034&lt;/a&gt;\n.\nPLOT\n.\nThe movie De Nieuwe Wildernis is set in the Oostvaardersplassen,\na nature reserve of high standard in the Netherlands...\n.\nAudio: Dutch\n.\nScreens: &lt;a href=&quot;\nhttp://imageshack.us/a/img843/156/ik7r.png&quot; rel=&quot;nofollow&quot; target=&quot;_NEW&quot;&gt;\nhttp://imageshack.us/a/img843/156/ik7r.png&lt;/a&gt; &lt;a href=&quot;\nhttp://imageshack.us/a/img842/1786/bi0i.png&quot; rel=&quot;nofollow&quot; target=&quot;_NEW&quot;&gt;\nhttp://imageshack.us/a/img842/1786/bi0i.png&lt;/a&gt; &lt;a href=&quot;\nhttp://imageshack.us/a/img690/1183/t9bh.png&quot; rel=&quot;nofollow&quot; target=&quot;_NEW&quot;&gt;\nhttp://imageshack.us/a/img690/1183/t9bh.png&lt;/a&gt; &lt;a href=&quot;\nhttp://imageshack.us/a/img513/9647/z7lh.png&quot; rel=&quot;nofollow&quot; target=&quot;_NEW&quot;&gt;\nhttp://imageshack.us/a/img513/9647/z7lh.png&lt;/a&gt; &lt;a href=&quot;\nhttp://imageshack.us/a/img196/1802/gskt.png&quot; rel=&quot;nofollow&quot; target=&quot;_NEW&quot;&gt;\nhttp://imageshack.us/a/img196/1802/gskt.png&lt;/a&gt;\n.\nGeneral\nFormat                                   : MPEG-4\nFormat profile                           : Base Media\nCodec ID                                 : isom\nFile size                                : 695 MiB\nDuration                                 : 1h 37mn\nOverall bit rate mode                    : Variable\nOverall bit rate                         : 996 Kbps\n\nVideo\nID                                       : 1\nFormat                                   : AVC\nFormat/Info                              : Advanced Video Codec\nFormat profile                           : &lt;a class=&quot;__cf_email__&quot; href=&quot;/cdn-cgi/l/email-protection&quot; data-cfemail=&quot;f9b1909e91b9b5cbd7cb&quot;&gt;[email&amp;#160;protected]&lt;/a&gt;&lt;script data-cfhash='f9e31' type=&quot;text/javascript&quot;&gt;\n/* &lt;![CDATA[ */!function(){try{var t=&quot;currentScript&quot;in document?document.currentScript:function(){for(var t=document.getElementsByTagName(&quot;script&quot;),e=t.length;e--;)if(t[e].getAttribute(&quot;data-cfhash&quot;))return t[e]}();if(t&amp;&amp;t.previousSibling){var e,r,n,i,c=t.previousSibling,a=c.getAttribute(&quot;data-cfemail&quot;);if(a){for(e=&quot;&quot;,r=parseInt(a.substr(0,2),16),n=2;a.length-n;n+=2)i=parseInt(a.substr(n,2),16)^r,e+=String.fromCharCode(i);e=document.createTextNode(e),c.parentNode.replaceChild(e,c)}t.parentNode.removeChild(t);}}catch(u){}}()/* ]]&gt; */&lt;/script&gt;\nFormat settings, CABAC                   : Yes\nFormat settings, ReFrames                : 10 frames\nCodec ID                                 : avc1\nCodec ID/Info                            : Advanced Video Coding\nDuration                                 : 1h 37mn\nBit rate                                 : 867 Kbps\nMaximum bit rate                         : 4 941 Kbps\nWidth                                    : 664 pixels\nHeight                                   : 272 pixels\nDisplay aspect ratio                     : 2.40:1\nFrame rate mode                          : Constant\nFrame rate                               : 25.000 fps\nColor space                              : YUV\nChroma subsampling                       : 4:2:0\nBit depth                                : 8 bits\nScan type                                : Progressive\nBits/(Pixel*Frame)                       : 0.192\nStream size                              : 605 MiB (87%)\nWriting library                          : x264 core 93 r1538bm bd72d46\nEncoding settings                        : cabac=1 / ref=10 / deblock=1:-2:-1 / analyse=0x3:0x133 / me=umh / subme=6 / psy=1 / psy_rd=1.00:0.00 / mixed_ref=1 / me_range=16 / chroma_me=1 / trellis=2 / 8x8dct=1 / cqm=0 / deadzone=21,11 / fast_pskip=0 / chroma_qp_offset=-2 / threads=8 / sliced_threads=0 / nr=0 / decimate=1 / interlaced=0 / constrained_intra=0 / bframes=16 / b_pyramid=2 / b_adapt=1 / b_bias=0 / direct=1 / wpredb=1 / wpredp=2 / keyint=250 / keyint_min=25 / scenecut=40 / intra_refresh=0 / rc_lookahead=40 / rc=2pass / mbtree=1 / bitrate=867 / ratetol=1.0 / qcomp=0.60 / qpmin=10 / qpmax=51 / qpstep=4 / cplxblur=20.0 / qblur=0.5 / ip_ratio=1.40 / aq=1:1.00\nEncoded date                             : UTC 2013-12-05 22:51:18\nTagged date                              : UTC 2013-12-05 22:54:53\n\nAudio\nID                                       : 2\nFormat                                   : AAC\nFormat/Info                              : Advanced Audio Codec\nFormat profile                           : LC\nCodec ID                                 : 40\nDuration                                 : 1h 37mn\nBit rate mode                            : Variable\nBit rate                                 : 125 Kbps\nMaximum bit rate                         : 155 Kbps\nChannel(s)                               : 2 channels\nChannel positions                        : Front: L R\nSampling rate                            : 48.0 KHz\nCompression mode                         : Lossy\nStream size                              : 87.5 MiB (13%)\n.\nEnjoy DVDRip by NLU002","torrent":{"xt":"urn:btih:bc91eb7c175f3e7f47449a4f3fdc96a12551980b","amp;dn":"De+Nieuwe+Wildernis+%282013%29+DVDRip-NLU002","amp;tr":["udp%3A%2F%2Ftracker.openbittorrent.com%3A80","udp%3A%2F%2Fopen.demonii.com%3A1337","udp%3A%2F%2Ftracker.coppersurfer.tk%3A6969","udp%3A%2F%2Fexodus.desync.com%3A6969"],"infoHash":"bc91eb7c175f3e7f47449a4f3fdc96a12551980b","infoHashBuffer":{"type":"Buffer","data":[188,145,235,124,23,95,62,127,71,68,154,79,63,220,150,161,37,81,152,11]},"announce":[],"urlList":[]}}